<?xml version="1.0" encoding="UTF-8" standalone="no"?>
<svg
   viewBox="0 0 23.975769 37.51376"
   width="23.975769"
   height="37.51376"
   version="1.1"
   id="svg834"
   sodipodi:docname="logo.svg"
   inkscape:version="1.1 (c4e8f9e, 2021-05-24)"
   xmlns:inkscape="http://www.inkscape.org/namespaces/inkscape"
   xmlns:sodipodi="http://sodipodi.sourceforge.net/DTD/sodipodi-0.dtd"
   xmlns="http://www.w3.org/2000/svg"
   xmlns:svg="http://www.w3.org/2000/svg">
  <defs
     id="defs838" />
  <sodipodi:namedview
     id="namedview836"
     pagecolor="#ffffff"
     bordercolor="#666666"
     borderopacity="1.0"
     inkscape:pageshadow="2"
     inkscape:pageopacity="0.0"
     inkscape:pagecheckerboard="0"
     showgrid="false"
     fit-margin-top="0"
     fit-margin-left="0"
     fit-margin-right="0"
     fit-margin-bottom="0"
     inkscape:zoom="9.0714286"
     inkscape:cx="12.291339"
     inkscape:cy="30.03937"
     inkscape:window-width="1384"
     inkscape:window-height="847"
     inkscape:window-x="56"
     inkscape:window-y="25"
     inkscape:window-maximized="1"
     inkscape:current-layer="svg834" />
  <g
     fill="#61d1b6"
     color="#61d1b6"
     transform="matrix(0.5961539,0,0,0.5961539,-0.23311554,0.01376119)"
     id="g828">
    <svg
       width="41"
       height="52"
       x="0.0"
       y="0.0"
       viewBox="0 0 41 52"
       version="1.1"
       id="svg826">
      <path
         fill="currentColor"
         fill-rule="nonzero"
         d="M 31.7,3.62 A 7.516,7.516 0 0 0 22.12,2.23 10.273,10.273 0 0 0 14.18,0.09 C 13.06,0.25 13.54,1.87 14.66,1.87 16.77,1.6 18.9,2.14 20.61,3.4 20.34,3.62 20.09,3.85 19.84,4.09 17.83,3.74 15.79,3.62 13.75,3.72 c -1.14,0 -1.16,1.78 0,1.78 1.56,-0.07 3.12,0 4.66,0.21 A 12.21,12.21 0 0 0 16.4,9.88 c -1.23,5.04 -1.01,10.52 -1.3,15.68 -0.28,5.16 -0.36,10.09 -0.27,15.17 -2.78,-0.19 -5.49,-1 -7.92,-2.37 A 13.611,13.611 0 0 1 2.05,31.88 C 1.59,30.83 0.06,31.74 0.5,32.77 a 14.46,14.46 0 0 0 9.83,8.79 19.303,19.303 0 0 0 -8.56,6.85 c -0.71,0.89 0.55,2.15 1.25,1.26 3.38,-4.29 6.98,-7.5 12.71,-7 1.63,0.15 3.26,0.2 4.9,0.16 -0.18,2.45 -0.24,4.91 -0.18,7.37 H 19.6 c -0.49,0 -0.89,0.4 -0.89,0.89 0,0.49 0.4,0.89 0.89,0.89 h 5 c 0.49,0 0.89,-0.4 0.89,-0.89 0,-0.49 -0.4,-0.89 -0.89,-0.89 h -2.37 c 0,-2.49 0,-4.98 0.18,-7.48 4.88,-0.41 9.86,-2.01 11.77,-6.41 2.33,-5.34 1.69,-13.09 1.23,-18.78 C 35.03,12.86 35.13,7.13 31.7,3.62 Z m 1.1,31.2 c -1.98,6.12 -10.68,6.55 -16.24,6.14 v -7.39 c 2.85,0.55 6.53,0.12 8.39,-2.39 2.17,-2.99 1.3,-7.85 0.71,-11.2 -0.2,-1.12 -1.92,-0.66 -1.78,0.46 0.5,2.72 1.1,6.23 0,8.9 -1.1,2.67 -4.52,2.99 -6.91,2.53 a 0.785,0.785 0 0 0 -0.43,0 c 0.09,-3.56 0.25,-7.12 0.46,-10.68 0.23,-3.95 0,-8.17 1.3,-12 1.5,-4.72 7.76,-8.81 12.02,-4.27 3.31,3.56 3.1,10.36 3.33,14.99 0.24,4.63 0.63,10.35 -0.85,14.91 z m 6.61,-19.98 c 1.14,0.07 1.14,1.85 0,1.78 h -2.39 c -0.49,0 -0.89,-0.4 -0.89,-0.89 0,-0.49 0.4,-0.89 0.89,-0.89 z M 29.03,11.46 c -0.61,-0.48 -1.49,-0.38 -1.98,0.23 -0.09,0.11 -0.16,0.24 -0.21,0.38 -0.46,1.69 1.92,1.9 2.76,0.93 0.33,-0.4 0.28,-1 -0.13,-1.33 a 0.947,0.947 0 0 0 -0.44,-0.21 z"
         id="path824" />
    </svg>
  </g>
  <line
     x1="0.5"
     y1="37.01376"
     x2="23.475769"
     y2="37.01376"
     stroke="#61d1b6"
     stroke-linecap="round"
     id="line830" />
</svg>
